<svg version="1.2" xmlns="http://www.w3.org/2000/svg" viewBox="0 0 1547 1489" width="1547" height="1489"><style></style><path fill-rule="evenodd" d="m255.7 749.9l-255.7-116v-309l589.8 269.8 159.6-71.7c8.9-5.2 18.5-14.8 18.5-24.4 0-9.6-9.6-20-18.5-28.8l-532.1-242.5 468.5-216.5c10.4-5.2 24.4-10.4 39.2-10.4 14 0 28.8 5.2 38.4 10.4l711 323c33.3 14.8 71.7 34 71.7 77.6 0 44.3-38.4 62.8-71.7 77.6l-560.9 256.5 560.9 255.7c33.3 14 71.7 34 71.7 76.9 0 43.6-38.4 63.5-71.7 77.6l-711 324.4c-9.6 4.5-24.4 8.9-38.4 8.9-14.8 0-28.8-4.4-39.2-8.9l-473.7-213.6 532.1-241.7c9.6-4.4 19.2-14 19.2-28 0-10.4-9.6-20-19.2-24.4l-159.6-73.2-584.6 271.2v-304.5z"/></svg>