<svg version="1.2" xmlns="http://www.w3.org/2000/svg" viewBox="0 0 1594 516" width="1594" height="516">
	<title>7012</title>
	<style>
		.s0 { fill: #ed1c24 } 
	</style>
	<g id="g15">
		<path id="path13" fill-rule="evenodd" class="s0" d="m0 0h467.2v240h93.1c113.5 0 425.7-66 425.7-152.8 0-41.9-55.1-87.2-55.1-87.2h661.2c0 0-17.4 117.1-111.5 179.8-69.9 46.7-150.1 75.7-180.4 75.7v10.6c65.1 10.6 112.4 26 149.5 45.3 42.5 22.3 70.5 50.6 93.1 82.4 34.8 48.3 51.2 122 51.2 122h-667.9c1.9 0 69.6-49.6 69.6-93 0-52.1-90.9-89.1-193.7-111.4-88.3-19.3-185.3-28.9-243.6-28.9h-91.2v233.3h-467.2z"/>
	</g>
</svg>