<svg version="1.2" xmlns="http://www.w3.org/2000/svg" viewBox="0 0 1547 1544" width="1547" height="1544"><style>.a{fill:#df003a}</style><path class="a" d="m585 339.8l338.5 233.8c66.7 46.9 145.8 85.9 266.1 85.9 187 0 356.8-126 356.8-126l-772.9-533.3c0 0-84.3 92.7-349.4 257.3-278.1 173.4-423.5 223.4-423.5 223.4l1001 690.6-44.2 29.2-333.9-230.2c-66.6-46.9-145.8-85.4-266.1-85.4-187 0-356.8 125.5-356.8 125.5l772.9 533.3c0 0 84.4-92.7 349.5-257.3 277.6-172.9 423.4-223.4 423.4-223.4l-1006.2-694.3z"/></svg>